name analog
datacolumns 19
datarows 50
range 0.159 0.1835
endheader
time	ground_force_vx	ground_force_vy	ground_force_vz	ground_force_px	ground_force_py	ground_force_pz	l_ground_force_vx	l_ground_force_vy	l_ground_force_vz	l_ground_force_px	l_ground_force_py	l_ground_force_pz	ground_torque_x	ground_torque_y	ground_torque_z	l_ground_torque_x	l_ground_torque_y	l_ground_torque_z
0.159	-0.0	-0.0	-0.0	4.862679958343506	1.4210323095321655	-821.143310546875	-0.0	-0.0	-0.0	-0.0	-0.0	-0.0	-0.0	-0.0	-0.0	-0.0	-0.0	-0.0
0.1595	-0.0	-0.0	-0.0	4.523687839508057	1.0890834331512451	-820.0838623046875	-0.0	-0.0	-0.0	-0.0	-0.0	-0.0	-0.0	-0.0	-0.0	-0.0	-0.0	-0.0
0.16	-0.0	-0.0	-0.0	4.179826736450195	1.2478256225585938	-818.7745971679688	-0.0	-0.0	-0.0	-0.0	-0.0	-0.0	-0.0	-0.0	-0.0	-0.0	-0.0	-0.0
0.1605	-0.0	-0.0	-0.0	3.607855796813965	0.2870911955833435	-818.8941650390625	-0.0	-0.0	-0.0	-0.0	-0.0	-0.0	-0.0	-0.0	-0.0	-0.0	-0.0	-0.0
0.161	-0.0	-0.0	-0.0	3.396610736846924	-0.3994137048721313	-817.9647216796875	-0.0	-0.0	-0.0	-0.0	-0.0	-0.0	-0.0	-0.0	-0.0	-0.0	-0.0	-0.0
0.1615	-0.0	-0.0	-0.0	4.103683471679688	-1.2839853763580322	-818.5137329101562	-0.0	-0.0	-0.0	-0.0	-0.0	-0.0	-0.0	-0.0	-0.0	-0.0	-0.0	-0.0
0.162	-0.0	-0.0	-0.0	4.728157043457031	-1.531085729598999	-816.6839599609375	-0.0	-0.0	-0.0	-0.0	-0.0	-0.0	-0.0	-0.0	-0.0	-0.0	-0.0	-0.0
0.1625	-0.0	-0.0	-0.0	5.276830196380615	-2.633718490600586	-813.7000122070312	-0.0	-0.0	-0.0	-0.0	-0.0	-0.0	-0.0	-0.0	-0.0	-0.0	-0.0	-0.0
0.163	-0.0	-0.0	-0.0	5.537778377532959	-3.607302188873291	-814.24658203125	-0.0	-0.0	-0.0	-0.0	-0.0	-0.0	-0.0	-0.0	-0.0	-0.0	-0.0	-0.0
0.1635	-0.0	-0.0	-0.0	6.347476959228516	-4.0797200202941895	-812.3138427734375	-0.0	-0.0	-0.0	-0.0	-0.0	-0.0	-0.0	-0.0	-0.0	-0.0	-0.0	-0.0
0.164	-0.0	-0.0	-0.0	6.601577758789063	-4.360591411590576	-811.2811889648438	-0.0	-0.0	-0.0	-0.0	-0.0	-0.0	-0.0	-0.0	-0.0	-0.0	-0.0	-0.0
0.1645	-0.0	-0.0	-0.0	6.54650354385376	-5.690703392028809	-813.4022216796875	-0.0	-0.0	-0.0	-0.0	-0.0	-0.0	-0.0	-0.0	-0.0	-0.0	-0.0	-0.0
0.165	-0.0	-0.0	-0.0	6.155525207519531	-5.978595733642578	-813.3190307617188	-0.0	-0.0	-0.0	-0.0	-0.0	-0.0	-0.0	-0.0	-0.0	-0.0	-0.0	-0.0
0.1655	-0.0	-0.0	-0.0	5.874086380004883	-5.649702548980713	-812.3685302734375	-0.0	-0.0	-0.0	-0.0	-0.0	-0.0	-0.0	-0.0	-0.0	-0.0	-0.0	-0.0
0.166	-0.0	-0.0	-0.0	5.249535083770752	-4.950725555419922	-813.7815551757812	-0.0	-0.0	-0.0	-0.0	-0.0	-0.0	-0.0	-0.0	-0.0	-0.0	-0.0	-0.0
0.1665	-0.0	-0.0	-0.0	4.6041259765625	-4.353474140167236	-813.0753784179688	-0.0	-0.0	-0.0	-0.0	-0.0	-0.0	-0.0	-0.0	-0.0	-0.0	-0.0	-0.0
0.167	-0.0	-0.0	-0.0	4.378317832946777	-2.941303253173828	-816.6556396484375	-0.0	-0.0	-0.0	-0.0	-0.0	-0.0	-0.0	-0.0	-0.0	-0.0	-0.0	-0.0
0.1675	-0.0	-0.0	-0.0	4.2821044921875	-1.9467979669570925	-812.4532470703125	-0.0	-0.0	-0.0	-0.0	-0.0	-0.0	-0.0	-0.0	-0.0	-0.0	-0.0	-0.0
0.168	-0.0	-0.0	-0.0	4.007409572601318	-0.3706361055374145	-811.533935546875	-0.0	-0.0	-0.0	-0.0	-0.0	-0.0	-0.0	-0.0	-0.0	-0.0	-0.0	-0.0
0.1685	-0.0	-0.0	-0.0	3.389999389648437	0.9986042380332948	-811.9888305664062	-0.0	-0.0	-0.0	-0.0	-0.0	-0.0	-0.0	-0.0	-0.0	-0.0	-0.0	-0.0
0.169	-0.0	-0.0	-0.0	2.622811079025269	0.6524522304534912	-809.1635131835938	-0.0	-0.0	-0.0	-0.0	-0.0	-0.0	-0.0	-0.0	-0.0	-0.0	-0.0	-0.0
0.1695	-0.0	-0.0	-0.0	2.662001132965088	1.383182168006897	-808.3023681640625	-0.0	-0.0	-0.0	-0.0	-0.0	-0.0	-0.0	-0.0	-0.0	-0.0	-0.0	-0.0
0.17	-0.0	-0.0	-0.0	2.333865165710449	1.240636110305786	-804.62939453125	-0.0	-0.0	-0.0	-0.0	-0.0	-0.0	-0.0	-0.0	-0.0	-0.0	-0.0	-0.0
0.1705	-0.0	-0.0	-0.0	2.14105224609375	1.040651559829712	-800.095703125	-0.0	-0.0	-0.0	-0.0	-0.0	-0.0	-0.0	-0.0	-0.0	-0.0	-0.0	-0.0
0.171	-0.0	-0.0	-0.0	0.6005709767341614	0.6456625461578369	-797.3568725585938	-0.0	-0.0	-0.0	-0.0	-0.0	-0.0	-0.0	-0.0	-0.0	-0.0	-0.0	-0.0
0.1715	-0.0	-0.0	-0.0	-0.3203656673431396	0.4966731071472168	-795.71435546875	-0.0	-0.0	-0.0	-0.0	-0.0	-0.0	-0.0	-0.0	-0.0	-0.0	-0.0	-0.0
0.17200000000000001	-0.0	-0.0	-0.0	-1.3686952590942385	0.907159149646759	-787.2333374023438	-0.0	-0.0	-0.0	-0.0	-0.0	-0.0	-0.0	-0.0	-0.0	-0.0	-0.0	-0.0
0.17250000000000001	-0.0	-0.0	-0.0	-2.490537166595459	0.5347824096679688	-783.0581665039062	-0.0	-0.0	-0.0	-0.0	-0.0	-0.0	-0.0	-0.0	-0.0	-0.0	-0.0	-0.0
0.17300000000000001	-0.0	-0.0	-0.0	-4.26731538772583	0.1487089097499847	-780.1159057617188	-0.0	-0.0	-0.0	-0.0	-0.0	-0.0	-0.0	-0.0	-0.0	-0.0	-0.0	-0.0
0.17350000000000002	-0.0	-0.0	-0.0	-5.1742095947265625	-0.3119609355926513	-774.90625	-0.0	-0.0	-0.0	-0.0	-0.0	-0.0	-0.0	-0.0	-0.0	-0.0	-0.0	-0.0
0.17400000000000002	-0.0	-0.0	-0.0	-5.300781726837158	-0.2006575465202331	-771.7572631835938	-0.0	-0.0	-0.0	-0.0	-0.0	-0.0	-0.0	-0.0	-0.0	-0.0	-0.0	-0.0
0.17450000000000002	-0.0	-0.0	-0.0	-4.430549621582031	1.0396158695220947	-767.931884765625	-0.0	-0.0	-0.0	-0.0	-0.0	-0.0	-0.0	-0.0	-0.0	-0.0	-0.0	-0.0
0.17500000000000002	-0.0	-0.0	-0.0	-3.687762260437012	0.9879604578018188	-762.4307250976562	-0.0	-0.0	-0.0	-0.0	-0.0	-0.0	-0.0	-0.0	-0.0	-0.0	-0.0	-0.0
0.17550000000000002	-0.0	-0.0	-0.0	-2.7806692123413086	1.107388973236084	-756.1047973632812	-0.0	-0.0	-0.0	-0.0	-0.0	-0.0	-0.0	-0.0	-0.0	-0.0	-0.0	-0.0
0.176	-0.0	-0.0	-0.0	-4.845831394195557	2.2510197162628174	-755.1588745117188	-0.0	-0.0	-0.0	-0.0	-0.0	-0.0	-0.0	-0.0	-0.0	-0.0	-0.0	-0.0
0.1765	-0.0	-0.0	-0.0	-6.66025972366333	2.941303253173828	-750.4468994140625	-0.0	-0.0	-0.0	-0.0	-0.0	-0.0	-0.0	-0.0	-0.0	-0.0	-0.0	-0.0
0.177	-0.0	-0.0	-0.0	-8.673590660095215	3.623689889907837	-746.8350219726562	-0.0	-0.0	-0.0	-0.0	-0.0	-0.0	-0.0	-0.0	-0.0	-0.0	-0.0	-0.0
0.1775	-0.0	-0.0	-0.0	-9.50709056854248	3.937097549438477	-744.1196899414062	-0.0	-0.0	-0.0	-0.0	-0.0	-0.0	-0.0	-0.0	-0.0	-0.0	-0.0	-0.0
0.178	-0.0	-0.0	-0.0	-10.274660110473633	3.603809595108032	-742.3231201171875	-0.0	-0.0	-0.0	-0.0	-0.0	-0.0	-0.0	-0.0	-0.0	-0.0	-0.0	-0.0
0.1785	-0.0	-0.0	-0.0	-9.968283653259276	3.4838430881500244	-739.236328125	-0.0	-0.0	-0.0	-0.0	-0.0	-0.0	-0.0	-0.0	-0.0	-0.0	-0.0	-0.0
0.179	-0.0	-0.0	-0.0	-10.76332664489746	3.371396780014038	-736.3493041992188	-0.0	-0.0	-0.0	-0.0	-0.0	-0.0	-0.0	-0.0	-0.0	-0.0	-0.0	-0.0
0.1795	-0.0	-0.0	-0.0	-12.012118339538574	3.518307685852051	-735.9959716796875	-0.0	-0.0	-0.0	-0.0	-0.0	-0.0	-0.0	-0.0	-0.0	-0.0	-0.0	-0.0
0.18	-0.0	-0.0	-0.0	-14.428510665893556	2.8286023139953613	-736.930908203125	-0.0	-0.0	-0.0	-0.0	-0.0	-0.0	-0.0	-0.0	-0.0	-0.0	-0.0	-0.0
0.1805	-0.0	-0.0	-0.0	-16.16287612915039	2.576901435852051	-738.530517578125	-0.0	-0.0	-0.0	-0.0	-0.0	-0.0	-0.0	-0.0	-0.0	-0.0	-0.0	-0.0
0.181	-0.0	-0.0	-0.0	-18.085960388183597	1.8638209104537964	-740.87744140625	-0.0	-0.0	-0.0	-0.0	-0.0	-0.0	-0.0	-0.0	-0.0	-0.0	-0.0	-0.0
0.1815	-0.0	-0.0	-0.0	-19.049619674682617	1.400606393814087	-744.824951171875	-0.0	-0.0	-0.0	-0.0	-0.0	-0.0	-0.0	-0.0	-0.0	-0.0	-0.0	-0.0
0.182	-0.0	-0.0	-0.0	-20.1375675201416	1.085555076599121	-749.5429077148438	-0.0	-0.0	-0.0	-0.0	-0.0	-0.0	-0.0	-0.0	-0.0	-0.0	-0.0	-0.0
0.1825	-0.0	-0.0	-0.0	-20.437231063842773	0.713043212890625	-757.3485717773438	-0.0	-0.0	-0.0	-0.0	-0.0	-0.0	-0.0	-0.0	-0.0	-0.0	-0.0	-0.0
0.183	-0.0	-0.0	-0.0	-19.180259704589844	-0.2512801885604858	-764.89404296875	-0.0	-0.0	-0.0	-0.0	-0.0	-0.0	-0.0	-0.0	-0.0	-0.0	-0.0	-0.0
0.1835	-0.0	-0.0	-0.0	-18.198850631713867	-1.1667895317077637	-771.1201171875	-0.0	-0.0	-0.0	-0.0	-0.0	-0.0	-0.0	-0.0	-0.0	-0.0	-0.0	-0.0
